<svg xmlns="http://www.w3.org/2000/svg" width="48" height="48" viewBox="0 0 48 48">
  <defs>
    <linearGradient id="g" x1="0" y1="0" x2="1" y2="1">
      <stop offset="0" stop-color="#C7D2FE"/>
      <stop offset="1" stop-color="#A5B4FC"/>
    </linearGradient>
  </defs>
  <rect width="48" height="48" rx="13" fill="url(#g)"/>
  <path d="M32.24 19.52L18.58 36.00L15.27 36.00Q14.47 35.31 14.00 34.37Q13.53 33.43 13.53 32.24L13.53 32.24Q13.53 31.25 14.00 30.28Q14.47 29.32 15.17 28.48L15.17 28.48L29.22 12.00L32.14 12.00Q32.93 12.69 33.40 13.63Q33.87 14.57 33.87 15.76L33.87 15.76Q33.87 16.75 33.40 17.72Q32.93 18.68 32.24 19.52L32.24 19.52M16.55 12.00L30.36 12.00L30.36 18.48L14.57 18.48Q14.28 17.94 14.00 17.07Q13.73 16.21 13.73 15.27L13.73 15.27Q13.73 13.53 14.52 12.77Q15.32 12.00 16.55 12.00L16.55 12.00M31.65 36.00L17.84 36.00L17.84 29.52L33.62 29.52Q33.92 30.01 34.19 30.88Q34.47 31.74 34.47 32.73L34.47 32.73Q34.47 34.47 33.70 35.23Q32.93 36.00 31.65 36.00L31.65 36.00" fill="#4F46E5"/>
</svg>
